<svg class="i-logo" data-name="Layer 1" xmlns="http://www.w3.org/2000/svg" width="250" height="24.501" viewBox="0 0 250 24.501"><title>{{ t(&apos;site-logo-title&apos;) }}</title><path d="M4.88.38l.034 15.088a10.245 10.245 0 0 0 .242 2.977 2.016 2.016 0 0 0 2.215 1.626 1.912 1.912 0 0 0 1.973-1.28c.277-.658.31-1.454.31-3.565V.381h4.153v14.845c0 3.495-.38 5.572-1.35 6.922-.898 1.245-2.56 2.353-5.466 2.353-1.315 0-3.877-.173-5.434-2.042C.347 21.006 0 18.652 0 15.641V.381h4.88M18.653.38h6.16c2.283 0 4.602.07 6.16 2.216a8.517 8.517 0 0 1 1.315 4.81 8.984 8.984 0 0 1-.97 4.326 6.838 6.838 0 0 1-2.145 2.075l3.599 10.313H27.65l-2.733-9.344H23.43v9.344h-4.776V.38zm6.16 10.487a2.42 2.42 0 0 0 2.042-1.004 4.894 4.894 0 0 0 .554-2.56 3.83 3.83 0 0 0-.59-2.32 2.35 2.35 0 0 0-2.006-.865H23.43v6.749h1.384zM36.475.38h6.472c2.11 0 4.325-.103 5.917 1.66a6.795 6.795 0 0 1 1.454 4.466 7.047 7.047 0 0 1-.83 3.564 4.423 4.423 0 0 1-2.112 1.662 4.924 4.924 0 0 1 2.527 1.73 7.909 7.909 0 0 1 1.107 4.256 6.95 6.95 0 0 1-1.107 3.98c-1.559 2.353-3.946 2.422-6.091 2.422h-7.337V.38zm6.472 9.587a2.615 2.615 0 0 0 2.11-.796 4.028 4.028 0 0 0 .52-2.078 3.506 3.506 0 0 0-.727-2.248 2.52 2.52 0 0 0-1.903-.657h-1.765v5.779h1.765zm.14 10.14a2.841 2.841 0 0 0 2.317-.763 3.934 3.934 0 0 0 .657-2.387 3.37 3.37 0 0 0-.969-2.7 3.128 3.128 0 0 0-2.145-.484h-1.765v6.334h1.904zM63.78.38l5.365 23.74h-4.914l-.935-5.122h-4.707l-.969 5.122h-4.326L58.693.38h5.087zm-2.353 8.444a24.24 24.24 0 0 1-.52-4.014 35.998 35.998 0 0 1-.552 3.771l-1.281 6.541h3.668l-1.315-6.298zM71.948.38h4.777l3.874 10.9c.346.97.9 3.462 1.142 4.673-.207-2.352-.38-5.328-.38-7.197V.38h3.98v23.74h-3.98l-4.465-12.147a49.544 49.544 0 0 1-1.384-4.88c.104 1.039.417 5.71.417 7.025V24.12h-3.981V.38m40.177 2.526c.798 1.212 1.938 3.67 1.938 9.344 0 5.676-1.14 8.133-1.938 9.344a6.726 6.726 0 0 1-11.073 0c-.797-1.211-1.939-3.668-1.939-9.344 0-5.675 1.142-8.132 1.94-9.344a6.727 6.727 0 0 1 11.072 0zm-7.06 16.474a1.774 1.774 0 0 0 3.047 0c.553-.832.795-2.492.795-7.13 0-4.637-.242-6.297-.795-7.13a1.774 1.774 0 0 0-3.046 0c-.554.833-.795 2.493-.795 7.13 0 4.638.24 6.298.795 7.13zm18.032-19l.036 15.088a10.292 10.292 0 0 0 .241 2.977 2.018 2.018 0 0 0 2.215 1.626 1.91 1.91 0 0 0 1.974-1.28c.277-.658.311-1.454.311-3.565V.381h4.152v14.845c0 3.495-.38 5.572-1.349 6.922-.9 1.245-2.56 2.353-5.469 2.353-1.314 0-3.875-.173-5.432-2.042-1.211-1.453-1.556-3.807-1.556-6.818V.381h4.877m20.697 23.739h-4.915V4.845h-3.876V.381h12.77v4.464h-3.98V24.12m12.077-13.427h5.191v3.98h-5.19v9.447h-4.915V.38h11.696v4.188h-6.782v6.125M165.699.38h4.914v23.74H165.7V.38zm16.887 23.74h-4.913V4.845h-3.877V.381h12.771v4.464h-3.98V24.12m14.084 0h-4.913V4.845h-3.876V.381h12.77v4.464h-3.98V24.12m12.043-14.085h5.743v3.98h-5.743v5.918h7.474v4.187h-12.355V.38h12.355v4.188h-7.474v5.467M219.788.38h6.16c2.285 0 4.604.07 6.16 2.216a8.51 8.51 0 0 1 1.316 4.81 8.999 8.999 0 0 1-.97 4.326 6.85 6.85 0 0 1-2.146 2.075l3.6 10.313h-5.122l-2.734-9.344h-1.487v9.344h-4.777V.38zm6.16 10.487a2.42 2.42 0 0 0 2.042-1.004 4.894 4.894 0 0 0 .553-2.56 3.833 3.833 0 0 0-.587-2.32 2.353 2.353 0 0 0-2.008-.865h-1.383v6.749h1.383zm20.003-3.774a4.093 4.093 0 0 0-1.176-2.352 2.334 2.334 0 0 0-1.489-.45 1.923 1.923 0 0 0-1.487.554 2.747 2.747 0 0 0-.555 1.764 2.3 2.3 0 0 0 .832 1.94 13.773 13.773 0 0 0 3.356 1.763 7.454 7.454 0 0 1 3.426 2.666A6.487 6.487 0 0 1 250 16.922a7.51 7.51 0 0 1-2.215 5.814 7.81 7.81 0 0 1-4.983 1.765 7.32 7.32 0 0 1-4.43-1.384 8.165 8.165 0 0 1-2.561-5.018l3.876-1.385a6.095 6.095 0 0 0 1.315 2.942 2.892 2.892 0 0 0 1.834.554 2.262 2.262 0 0 0 1.696-.623 2.597 2.597 0 0 0 .658-1.833 2.485 2.485 0 0 0-.795-1.938 14.142 14.142 0 0 0-3.29-1.905 7.526 7.526 0 0 1-3.425-2.7 7.64 7.64 0 0 1-1.038-3.943 7.617 7.617 0 0 1 2.11-5.503A6.352 6.352 0 0 1 243.149 0a6.866 6.866 0 0 1 3.599 1.038 7.557 7.557 0 0 1 2.872 4.464l-3.668 1.591"/></svg>